<svg width="1080" height="1080" viewBox="0 0 1080 1080" fill="none" xmlns="http://www.w3.org/2000/svg">
<path d="M803.5 216C810.062 216 816.44 216.785 822.547 218.267C843.038 223.238 864.022 230.194 883.053 239.273C905.604 250.032 921 271.621 921 296.5C921 321.379 905.604 342.967 883.053 353.726C864.022 362.805 843.038 369.761 822.547 374.733C816.44 376.215 810.062 377 803.5 377C759.041 377 723 340.959 723 296.5C723 252.041 759.041 216 803.5 216Z" fill="#D9D9D9"/>
<path d="M749 302C749 315.255 738.255 326 725 326H220C206.745 326 196 315.255 196 302V291C196 277.745 206.745 267 220 267H725C738.255 267 749 277.745 749 291V302Z" fill="#D9D9D9"/>
<path d="M803.5 460C810.062 460 816.441 460.785 822.547 462.267C843.038 467.238 864.022 474.194 883.053 483.273C888.567 485.904 893.653 489.184 898.191 493H830.439V493.031C802.24 493.475 780 498.563 780 504.773C780 510.984 802.24 516.071 830.439 516.515V516.547H915.977C917.677 520.434 918.975 524.509 919.825 528.727H830.439V528.758C802.24 529.202 780 534.289 780 540.5C780 546.711 802.24 551.797 830.439 552.241V552.273H919.825C918.975 556.491 917.677 560.566 915.977 564.453H830.439V564.484C802.24 564.928 780 570.016 780 576.227C780 582.437 802.24 587.524 830.439 587.968V588H898.19C893.653 591.815 888.568 595.095 883.054 597.726C864.023 606.805 843.038 613.762 822.547 618.733C816.441 620.215 810.062 621 803.5 621C759.041 621 723 584.959 723 540.5C723 496.041 759.041 460 803.5 460Z" fill="#D9D9D9"/>
<path d="M749 546C749 559.255 738.255 570 725 570H220C206.745 570 196 559.255 196 546V535C196 521.745 206.745 511 220 511H725C738.255 511 749 521.745 749 535V546Z" fill="#D9D9D9"/>
<path d="M749 782C749 795.255 738.255 806 725 806H220C206.745 806 196 795.255 196 782V771C196 757.745 206.745 747 220 747H725C738.255 747 749 757.745 749 771V782Z" fill="#D9D9D9"/>
<path d="M526 755C526 750.582 529.582 747 534 747H899.889C905.763 747 908.138 754.566 903.319 757.923L826.139 811.686C810.38 822.663 791.794 828.87 772.602 829.565L534.29 838.2C529.761 838.364 526 834.737 526 830.205V755Z" fill="#D9D9D9"/>
</svg>
